<svg xmlns="http://www.w3.org/2000/svg" viewBox="0 0 24 24" width="100" height="100" fill="black">
  <g id="Layer_2" data-name="Layer 2">
    <g id="Layer_1-2" data-name="Layer 1">
      <path d="M12 0C5.92 0 1.07 5.59 1 5.67V6a3 3 0 0 0 3 3h3v9a4 4 0 0 0 8 0V9h3a3 3 0 0 0 3-3v-.33c-.07-.08-4.93-5.67-11-5.67zm0 2a3 3 0 0 1 2.8 2H9.2A3 3 0 0 1 12 2zm-1.14 2a4.78 4.78 0 0 1 2.28 0H10.14zM4 7.88c.06-.2 3.67-2.88 8-2.88s7.94 2.68 8 2.88zM13.18 8H10.82a5 5 0 0 0-1.37 2h5.06a5 5 0 0 0-1.37-2zm-1.14 2a3 3 0 0 1 2.28 0h-4.56a3 3 0 0 1 2.28 0zM8 18a2 2 0 0 1 4 0v3H8zm2 4a4 4 0 0 0 4-4h2a6 6 0 0 1-12 0h2a4 4 0 0 0 4 4z"/>
    </g>
  </g>
</svg>
